<?xml version="1.0" standalone="no"?>
<!DOCTYPE svg PUBLIC "-//W3C//DTD SVG 20010904//EN"
 "http://www.w3.org/TR/2001/REC-SVG-20010904/DTD/svg10.dtd">
<svg version="1.0" xmlns="http://www.w3.org/2000/svg"
 width="211.000000pt" height="211.000000pt" viewBox="0 0 211.000000 211.000000"
 preserveAspectRatio="xMidYMid meet">
<metadata>
Created by potrace 1.14, written by Peter Selinger 2001-2017
</metadata>
<g transform="translate(0.000000,211.000000) scale(0.100000,-0.100000)"
fill="#000000" stroke="none">
<path d="M793 2090 c-395 -109 -688 -408 -778 -795 -21 -92 -21 -388 0 -480
86 -371 361 -663 735 -783 82 -26 93 -27 310 -27 l225 0 92 32 c373 130 633
412 718 778 21 92 21 388 0 480 -60 258 -225 498 -439 640 -105 68 -166 99
-279 137 -90 31 -97 31 -302 35 -185 2 -219 0 -282 -17z"/>
</g>
</svg>
